<svg width="720" height="900" viewBox="0 0 720 900" fill="none" xmlns="http://www.w3.org/2000/svg">
  <rect width="720" height="900" fill="#CDEEFF"/>
  <rect y="416" width="720" height="484" fill="#1498D5"/>
  <path d="M0 501C104 474 204 471 291 486C385 503 457 558 565 571C615 577 667 574 720 560V900H0V501Z" fill="#0E6AA8"/>
  <circle cx="365" cy="260" r="127" fill="#F4E1A1"/>
  <path d="M235 670C271 532 340 444 436 391C419 312 383 253 327 224C281 200 238 205 192 241C150 272 114 330 108 395C103 448 116 502 147 550L235 670Z" fill="#112C4F"/>
  <path d="M385 256C439 256 483 212 483 158C483 104 439 60 385 60C331 60 287 104 287 158C287 212 331 256 385 256Z" fill="#163A70"/>
  <rect x="289" y="130" width="190" height="74" rx="37" fill="#EAF8FF"/>
  <circle cx="336" cy="167" r="28" fill="#1498D5"/>
  <circle cx="431" cy="167" r="28" fill="#1498D5"/>
</svg>
